<svg width="100" height="100" xmlns="http://www.w3.org/2000/svg">
  <!-- Background circle -->
  <circle cx="50" cy="50" r="45" fill="#F5F5DC" stroke="#8B4513" stroke-width="2" />
  
  <!-- Quality icon - Star with coffee bean -->
  <g transform="translate(50, 50)">
    <!-- Star -->
    <path d="M0,-30 L8.5,-9.5 L30,-9.5 L12.5,3.5 L19,25 L0,10 L-19,25 L-12.5,3.5 L-30,-9.5 L-8.5,-9.5 Z" fill="#D2B48C" stroke="#5D3A1A" stroke-width="1.5" />
    
    <!-- Coffee bean in center -->
    <g transform="scale(0.6)">
      <ellipse cx="0" cy="0" rx="15" ry="10" transform="rotate(45, 0, 0)" fill="#5D3A1A" />
      <path d="M-5,-4 C-2.5,-7.5 2.5,-7.5 5,-4 C7.5,0 7.5,4 5,7.5 C2.5,10 -2.5,10 -5,7.5 C-7.5,4 -7.5,0 -5,-4 Z" fill="#8B4513" />
      <path d="M0,-6 L0,6" stroke="#D2B48C" stroke-width="1" />
    </g>
  </g>
  
  <!-- Decorative dots around the edge -->
  <g fill="#8B4513">
    <circle cx="50" cy="5" r="2" />
    <circle cx="75" cy="10" r="2" />
    <circle cx="90" cy="30" r="2" />
    <circle cx="95" cy="50" r="2" />
    <circle cx="90" cy="70" r="2" />
    <circle cx="75" cy="90" r="2" />
    <circle cx="50" cy="95" r="2" />
    <circle cx="25" cy="90" r="2" />
    <circle cx="10" cy="70" r="2" />
    <circle cx="5" cy="50" r="2" />
    <circle cx="10" cy="30" r="2" />
    <circle cx="25" cy="10" r="2" />
  </g>
</svg>