<svg width="100" height="100" xmlns="http://www.w3.org/2000/svg">
  <!-- Background circle -->
  <circle cx="50" cy="50" r="45" fill="#F5F5DC" stroke="#8B4513" stroke-width="2" />
  
  <!-- Sustainable icon - Recycling arrows with plant -->
  <g transform="translate(50, 50)">
    <!-- Recycling arrows -->
    <g fill="none" stroke="#5D3A1A" stroke-width="3" stroke-linecap="round">
      <!-- First arrow -->
      <path d="M-15,-15 A21.21,21.21 0 0,1 15,-15" />
      <path d="M10,-20 L15,-15 L20,-20" />
      
      <!-- Second arrow -->
      <path d="M15,-15 A21.21,21.21 0 0,1 0,15" />
      <path d="M-5,10 L0,15 L5,10" />
      
      <!-- Third arrow -->
      <path d="M0,15 A21.21,21.21 0 0,1 -15,-15" />
      <path d="M-20,-10 L-15,-15 L-10,-10" />
    </g>
    
    <!-- Plant in center -->
    <g transform="translate(0, 0)">
      <!-- Stem -->
      <path d="M0,0 C0,-5 0,-10 0,-15" stroke="#8B4513" stroke-width="1.5" fill="none" />
      
      <!-- Leaves -->
      <path d="M0,-8 C5,-10 8,-8 5,-5" stroke="#8B4513" stroke-width="1.5" fill="#D2B48C" />
      <path d="M0,-12 C-5,-14 -8,-12 -5,-9" stroke="#8B4513" stroke-width="1.5" fill="#D2B48C" />
      
      <!-- Soil/pot suggestion -->
      <ellipse cx="0" cy="0" rx="8" ry="3" fill="#8B4513" />
    </g>
  </g>
  
  <!-- Decorative dots around the edge -->
  <g fill="#8B4513">
    <circle cx="50" cy="5" r="2" />
    <circle cx="75" cy="10" r="2" />
    <circle cx="90" cy="30" r="2" />
    <circle cx="95" cy="50" r="2" />
    <circle cx="90" cy="70" r="2" />
    <circle cx="75" cy="90" r="2" />
    <circle cx="50" cy="95" r="2" />
    <circle cx="25" cy="90" r="2" />
    <circle cx="10" cy="70" r="2" />
    <circle cx="5" cy="50" r="2" />
    <circle cx="10" cy="30" r="2" />
    <circle cx="25" cy="10" r="2" />
  </g>
</svg>