<svg width="100" height="100" xmlns="http://www.w3.org/2000/svg">
  <!-- Background circle -->
  <circle cx="50" cy="50" r="45" fill="#F5F5DC" stroke="#8B4513" stroke-width="2" />
  
  <!-- Organic icon - Leaf with droplet -->
  <g transform="translate(50, 50)">
    <!-- Leaf shape -->
    <path d="M-5,-25 C10,-25 25,-10 25,5 C25,20 10,25 -5,25 C-5,10 -5,-10 -5,-25 Z" fill="#8B4513" />
    <path d="M-5,-20 C8,-20 20,-8 20,5 C20,18 8,20 -5,20 C-5,7 -5,-7 -5,-20 Z" fill="#D2B48C" />
    
    <!-- Leaf vein -->
    <path d="M-5,-20 C5,-15 15,-5 18,5 C15,15 5,18 -5,20" fill="none" stroke="#5D3A1A" stroke-width="1.5" />
    <path d="M-5,-10 L5,-5" fill="none" stroke="#5D3A1A" stroke-width="1" />
    <path d="M-5,0 L10,5" fill="none" stroke="#5D3A1A" stroke-width="1" />
    <path d="M-5,10 L5,12" fill="none" stroke="#5D3A1A" stroke-width="1" />
    
    <!-- Water droplet -->
    <path d="M-15,-15 C-20,-10 -20,-5 -15,0 C-10,5 -5,0 -10,-5 C-12,-10 -12,-15 -15,-15 Z" fill="#F5F5DC" stroke="#5D3A1A" stroke-width="1" />
  </g>
  
  <!-- Decorative dots around the edge -->
  <g fill="#8B4513">
    <circle cx="50" cy="5" r="2" />
    <circle cx="75" cy="10" r="2" />
    <circle cx="90" cy="30" r="2" />
    <circle cx="95" cy="50" r="2" />
    <circle cx="90" cy="70" r="2" />
    <circle cx="75" cy="90" r="2" />
    <circle cx="50" cy="95" r="2" />
    <circle cx="25" cy="90" r="2" />
    <circle cx="10" cy="70" r="2" />
    <circle cx="5" cy="50" r="2" />
    <circle cx="10" cy="30" r="2" />
    <circle cx="25" cy="10" r="2" />
  </g>
</svg>