<svg width="1920" height="1080" xmlns="http://www.w3.org/2000/svg">
  <!-- Background gradient -->
  <defs>
    <linearGradient id="bgGradient" x1="0%" y1="0%" x2="100%" y2="100%">
      <stop offset="0%" style="stop-color:#8B4513;stop-opacity:0.8" />
      <stop offset="100%" style="stop-color:#5D3A1A;stop-opacity:0.9" />
    </linearGradient>
  </defs>
  
  <!-- Background rectangle -->
  <rect width="100%" height="100%" fill="url(#bgGradient)" />
  
  <!-- Decorative elements -->
  <g opacity="0.1" fill="#D2B48C">
    <!-- Coffee beans scattered around -->
    <ellipse cx="200" cy="200" rx="30" ry="20" transform="rotate(45, 200, 200)" />
    <ellipse cx="500" cy="300" rx="25" ry="15" transform="rotate(30, 500, 300)" />
    <ellipse cx="800" cy="150" rx="35" ry="22" transform="rotate(60, 800, 150)" />
    <ellipse cx="1100" cy="400" rx="28" ry="18" transform="rotate(15, 1100, 400)" />
    <ellipse cx="1400" cy="250" rx="32" ry="20" transform="rotate(75, 1400, 250)" />
    <ellipse cx="1700" cy="350" rx="30" ry="19" transform="rotate(40, 1700, 350)" />
    <ellipse cx="300" cy="500" rx="27" ry="17" transform="rotate(55, 300, 500)" />
    <ellipse cx="600" cy="650" rx="33" ry="21" transform="rotate(25, 600, 650)" />
    <ellipse cx="900" cy="550" rx="29" ry="18" transform="rotate(70, 900, 550)" />
    <ellipse cx="1200" cy="700" rx="31" ry="20" transform="rotate(35, 1200, 700)" />
    <ellipse cx="1500" cy="600" rx="26" ry="16" transform="rotate(50, 1500, 600)" />
    <ellipse cx="1800" cy="750" rx="34" ry="22" transform="rotate(20, 1800, 750)" />
    <ellipse cx="400" cy="850" rx="30" ry="19" transform="rotate(65, 400, 850)" />
    <ellipse cx="700" cy="950" rx="28" ry="18" transform="rotate(10, 700, 950)" />
    <ellipse cx="1000" cy="900" rx="32" ry="20" transform="rotate(80, 1000, 900)" />
    <ellipse cx="1300" cy="1000" rx="29" ry="18" transform="rotate(30, 1300, 1000)" />
    <ellipse cx="1600" cy="850" rx="31" ry="20" transform="rotate(45, 1600, 850)" />
  </g>
  
  <!-- Cocoa pod illustration in the center -->
  <g transform="translate(960, 540) scale(0.8)" opacity="0.15" fill="#F5F5DC">
    <path d="M0,-200 C100,-150 200,-100 200,0 C200,100 100,200 0,200 C-100,200 -200,100 -200,0 C-200,-100 -100,-150 0,-200 Z" />
    <!-- Texture lines on the cocoa pod -->
    <path d="M0,-180 L0,180" stroke="#D2B48C" stroke-width="5" fill="none" opacity="0.3" />
    <path d="M-40,-160 L-40,160" stroke="#D2B48C" stroke-width="5" fill="none" opacity="0.3" />
    <path d="M40,-160 L40,160" stroke="#D2B48C" stroke-width="5" fill="none" opacity="0.3" />
    <path d="M-80,-120 L-80,120" stroke="#D2B48C" stroke-width="5" fill="none" opacity="0.3" />
    <path d="M80,-120 L80,120" stroke="#D2B48C" stroke-width="5" fill="none" opacity="0.3" />
    <path d="M-120,-80 L-120,80" stroke="#D2B48C" stroke-width="5" fill="none" opacity="0.3" />
    <path d="M120,-80 L120,80" stroke="#D2B48C" stroke-width="5" fill="none" opacity="0.3" />
    <path d="M-160,-40 L-160,40" stroke="#D2B48C" stroke-width="5" fill="none" opacity="0.3" />
    <path d="M160,-40 L160,40" stroke="#D2B48C" stroke-width="5" fill="none" opacity="0.3" />
  </g>
  
  <!-- Abstract wave patterns -->
  <path d="M0,400 C400,350 800,450 1200,400 C1600,350 2000,450 2400,400 L2400,1080 L0,1080 Z" fill="#8B4513" opacity="0.05" />
  <path d="M0,600 C400,550 800,650 1200,600 C1600,550 2000,650 2400,600 L2400,1080 L0,1080 Z" fill="#5D3A1A" opacity="0.05" />
  <path d="M0,800 C400,750 800,850 1200,800 C1600,750 2000,850 2400,800 L2400,1080 L0,1080 Z" fill="#D2B48C" opacity="0.05" />
</svg>